<svg width="25" height="21" viewBox="0 0 25 21" fill="none" xmlns="http://www.w3.org/2000/svg">
<path d="M22.4312 5.40937C23.4479 4.68749 24.3031 3.78645 25 2.74895V2.74791C24.0698 3.1552 23.0802 3.42604 22.0469 3.55729C23.1094 2.92291 23.9208 1.92604 24.3021 0.724994C23.3115 1.31562 22.2177 1.73229 21.0521 1.96562C20.1115 0.963536 18.7708 0.343744 17.3083 0.343744C14.4708 0.343744 12.1865 2.64687 12.1865 5.46979C12.1865 5.87604 12.2208 6.26666 12.3052 6.63854C8.04479 6.4302 4.27396 4.38854 1.74062 1.27708C1.29896 2.04479 1.03854 2.92291 1.03854 3.8677C1.03854 5.6427 1.95208 7.21562 3.31562 8.12708C2.49167 8.11145 1.68437 7.87187 1 7.49583V7.55208C1 10.0427 2.77604 12.1115 5.10625 12.5885C4.68854 12.7031 4.23438 12.7573 3.7625 12.7573C3.43437 12.7573 3.10312 12.7385 2.79271 12.6698C3.45625 14.699 5.34167 16.1917 7.58125 16.2406C5.8375 17.6042 3.62292 18.426 1.22604 18.426C0.80625 18.426 0.403125 18.4073 0 18.3562C2.27083 19.8198 4.96042 20.6562 7.8625 20.6562C16.9073 20.6562 22.8021 13.1104 22.4312 5.40937Z" fill="#858FE2"/>
</svg>
